<?xml version="1.0"?>
<svg width="100" height="100" xmlns="http://www.w3.org/2000/svg" xmlns:svg="http://www.w3.org/2000/svg">
 <!-- Created with SVG-edit - http://svg-edit.googlecode.com/ -->
 <g>
  <title>Layer 1</title>
  <rect fill="#7f0000" stroke-width="5" x="3.88672" y="84.24609" width="92.53906" height="11.55859" id="kagebund1" stroke="#7f0000"/>
  <rect fill="#a88679" stroke-width="5" stroke-dasharray="null" stroke-linejoin="null" stroke-linecap="null" x="4.10156" y="76.30859" width="92.85547" height="2.03906" id="kagefyld1" stroke="#a88679"/>
  <rect fill="#7f0000" stroke-width="5" x="3.07422" y="58.11914" width="92.53906" height="11.55859" stroke="#7f0000" id="kagebund2"/>
  <rect fill="#a88679" stroke-width="5" stroke-dasharray="null" stroke-linejoin="null" stroke-linecap="null" x="3.86523" y="49.90625" width="92.85547" height="2.03906" stroke="#a88679" id="kagefyld2"/>
  <rect fill="#7f0000" stroke-width="5" x="3.70704" y="31.85742" width="92.53906" height="11.55859" stroke="#7f0000" id="kagebund3"/>
  <path fill="#000000" stroke-width="5" stroke-dasharray="null" stroke-linejoin="null" stroke-linecap="null" d="m2.85938,32.17701c0.6149,4.94226 7.37882,4.49297 7.37882,4.49297c0,0 -0.20497,18.19652 -0.20497,18.42117c0,0.22465 2.66457,-16.39933 2.65698,-16.60734c-0.00759,-0.20801 7.79635,-1.81383 7.79635,-1.81383c0,0 2.86954,6.9641 2.86195,6.75609c-0.00759,-0.20801 4.51687,-8.10398 4.51687,-8.10398c0,0 7.78876,4.94226 7.78116,4.73425c-0.00759,-0.20801 5.74668,-2.71242 5.73908,-2.92043c-0.00759,-0.20801 0.41753,19.52777 0.40993,19.31976c-0.00759,-0.20801 8.00132,1.33125 7.99372,1.12324c-0.00759,-0.20801 -0.40234,-18.8871 -0.40993,-19.09511c-0.00759,-0.20801 11.69073,-2.03847 11.68313,-2.24648c-0.00759,-0.20801 7.38642,5.59957 7.37882,5.39156c-0.00759,-0.20801 5.74668,-4.9589 5.73908,-5.16691c-0.00759,-0.20801 8.82119,-0.69058 8.61622,1.1066c-0.20497,1.79719 3.68941,6.06551 3.68941,6.06551c0,0 4.91921,2.24648 4.91162,2.03847c-0.0076,-0.20801 1.64733,-5.18355 1.64733,-5.18355c0,0 4.09935,-7.86269 4.09175,-8.0707c-0.0076,-0.20801 -0.60731,-2.48777 -0.6149,-2.69578c-0.0076,-0.20801 -93.66244,2.45449 -93.66244,2.45449l0.00002,0z" id="glasur" stroke="#000000"/>
 </g>
</svg>